<svg width="180" height="180" viewBox="0 0 180 180" fill="none" xmlns="http://www.w3.org/2000/svg">
  <rect width="180" height="180" rx="36" fill="#020617" />
  <circle cx="90" cy="90" r="70" fill="#FFFFFF" />
  <path
    d="M58 20C33 60 33 120 58 160"
    stroke="#DC2626"
    stroke-width="12"
    stroke-linecap="round"
  />
  <path
    d="M122 20C147 60 147 120 122 160"
    stroke="#DC2626"
    stroke-width="12"
    stroke-linecap="round"
  />
  <g stroke="#DC2626" stroke-width="5" stroke-linecap="round">
    <path d="M70 34L74 30" />
    <path d="M70 54L74 50" />
    <path d="M70 74L74 70" />
    <path d="M70 94L74 90" />
    <path d="M70 114L74 110" />
    <path d="M70 134L74 130" />
    <path d="M110 34L106 30" />
    <path d="M110 54L106 50" />
    <path d="M110 74L106 70" />
    <path d="M110 94L106 90" />
    <path d="M110 114L106 110" />
    <path d="M110 134L106 130" />
  </g>
</svg>
